<?xml version="1.0" encoding="utf-8"?>
<!-- Generator: Adobe Illustrator 22.0.0, SVG Export Plug-In . SVG Version: 6.00 Build 0)  -->
<svg version="1.1" id="Layer_1" xmlns="http://www.w3.org/2000/svg" xmlns:xlink="http://www.w3.org/1999/xlink" x="0px" y="0px"
	 viewBox="0 0 823.2 793.5" style="enable-background:new 0 0 823.2 793.5;" xml:space="preserve">
<style type="text/css">
	.st0{fill:#FFFFFF;}
</style>
<path d="M808.4,291.2C787.4,215,745.3,141.5,685.2,93.3C627.6,47,544.4,12.7,470,3.4c-385-48.1-636.3,434-340,701.6
	c76.5,69.1,179.9,96.6,281.4,86.6c102.3-10.1,201.4-55.1,277.5-123.9c84.8-76.7,145.7-192.5,132.6-309
	C819,336.3,814.6,313.6,808.4,291.2L808.4,291.2z M745.7,380.8c-10.9-1.6-10.8-45.4,0.5-49.3C786.8,317.6,790.7,377.7,745.7,380.8z
	 M73.1,425.7l-15.8,82l6.3-3.2l6.4,67.8c-0.3,3.8-3.5,0-4.7-1.6c-55.7-75.1-41.5-208.2-9.5-290.2C146.9,46.9,413.2-36.3,626.9,94.7
	c-2.8,24.8-23.5,25.7-18.6,54.8c3.5,20.9,18.5,20.8,28.5,31.6c14.9,16.1-0.1,38.8,3.5,58.1l21.1,3c12.7-22.9,23.6-41.2,9-66.1
	c-8.2-13.9-21.6-17.3-30-30.2c0.3-12.9,7.1-24.5,16.9-32.4c7.5,18.5,24.5,27.9,36.3,42.6c32,39.7,58.7,89.4,76.1,137.1l-31.7,5
	l-12.5-44.4l-7.9-1.8l-192.9,34.6l-1.6,40c-30.3,0.2-45.9,7.6-61.7,33.1c-13.3,21.4-10,30.9-35.6,46.6
	c-24.2,14.7-65.9,33.5-80.9-0.3c-7.3-16.5,22.4-23.5,35.4-32.5c40.1-27.6,106.8-77.9,116.5-126.8c22.3-111.9-52.6-128.9-146.5-123.9
	c-10.9,0.6-22.3,6.6-31.3,6.2c-12.4-0.6-29.9-12.4-47.7-12.7c-51.9-0.7-62.8,26.8-91.7,57.1c-35.7,37.3-77.4,84.8-95.9,134.7
	c-2.8,7.6-4.7,14.8-3.8,23l12.6-1.6c-14.9,32.5-44.4,62.1-44.3,99.4L73.1,425.7L73.1,425.7z M704.9,416.4
	c-6.8,9.7-96.1,17.2-112.9,20.4c-13.5-6-22.7-100-27-118.4l124.7-24.5c2.5-0.2,4.8-1.3,7.1,0.6L704.9,416.4L704.9,416.4z
	 M452.7,483.8c-9.2,6.9-65.8,36.9-72.5,30.3l-12.7-53.6c17.1,0.2,35-7.5,50.5-14.3c11.9-5.2,49.3-24.3,55.2-33.3
	c6.7-10.2,8.2-26.6,16.3-37.4c12.8-17.1,47.9-27.3,45.5,2.8c-22.2-1.5-42.4,30.7-15.1,39.1c11.9,3.6,20-0.6,31.1,2.1
	c-6.4,29.9-49.2,24.9-72.8,25.2C481.8,459.9,464.2,475.2,452.7,483.8L452.7,483.8z M240.9,252.2c-12.8,0.1-30.4-12.8-33.3-25.1
	c-18-76.6,80-114.9,106.1-38c-25.7-23.6-74.7-30.7-87.9,8.6C216.8,224.1,222.5,233.5,240.9,252.2z M112,600
	c-19.2-54.8-16-146.6-6.7-203.7C115,336.6,135,267.5,171.2,219l8,1.7c7.7,50.8,45.3,68.2,92.8,54.6c53.8-15.4,57.9-67.2,52.5-114.7
	c6.2-8.8,77.5-8.1,91.3-5.5c34.5,6.5,55.5,34.3,47.8,69c-71.3,31.6-145.7,56.3-221.4,75.2l4.9,20.8c15.9,10.5,120.5-23.3,143.3-31
	c21.1-7.1,41.2-18,62.6-24.3c-13,22.9-36.3,42.2-57.3,58.1c-52.7,39.7-131.5,81.8-189.8,25.6c-13-12.5-14-35.8-31.7-34.8
	c-12.9,5.5-3.7,33,1.6,42.7c23.8,43.6,89.4,53,134.2,50.8c8.4,21.6,21.3,42.8,28.1,65c10.5,34.1,10.7,69.9,16.7,104.8
	c-14.7-4.2-26.8-11.6-41.9-16.6c-16-5.3-32.8-9.3-49.3-12.4c-9.8-26.9,9.3-78.5-35.4-75.1c1.1,15.9-1.5,33.3,0,48.9
	c1.2,12.9,6,35.1,15.7,44.3c33.8,32,124.1,19.6,123.6,89.8c-16-3.2-12.5-27.1-15.6-30c-6.4-6.1-40.9-10.6-44.4,0.4l6.2,32.8
	c-22.6,2.3-29.1-22.3-44.5-32.9c-27.9-19.2-48.5-13.7-70.8-49.4c-21.4-34.3-16.7-56.5-20.7-93c-2.5-23-25.6-5.2-28.4,16.2
	c-5.1,39.5,20.6,99.7,52,124.3c10.9,8.5,24.3,12.2,33.2,22.1c-23.4-2-45-5.8-67.3-13.4C151.8,627.9,117.3,615.1,112,600L112,600z
	 M466.2,743.3c-94.4,20.2-216.3,17.2-296-43.7c-7.1-5.4-47.1-42.4-40.1-49.9c33,12.5,61.3,22.8,96.6,28.3
	c116,18.3,238.2,27,341.9-40.9c34.8-22.8,58.1-53.4,83.8-85.3C650.2,654,560,723.3,466.2,743.3z M679.3,637.1
	c1.9-22.5,9.5-45.2,11.1-67.8c1.1-16.4,1-69.6-9.3-81.4c-17-19.6-34.3,16.5-41.4,24.6c-25.6,29.5-55.2,64.6-87.7,86.2
	c-41.3,27.4-93,46.3-142,53.3l-2.9-2.1c-11.7-32.5-21.8-66.1-23.6-100.9c23-4.2,45.3-10.2,66.3-20.7c40.8-20.2,66.1-57.9,115.6-61.5
	c9-0.7,20.6,6.5,31.5,6.4c27.4-0.1,100.6-12.6,125.8-23.1c35.7-14.8,14.3-31.3,24.4-38.8l31.7-7.8
	C779.5,493.4,735.9,570.7,679.3,637.1L679.3,637.1z"/>
<path class="st0" d="M652.4,551.9C650.2,654,560,723.3,466.2,743.3c-94.4,20.2-216.3,17.2-296-43.7c-7.1-5.4-47.1-42.4-40.1-49.9
	c33,12.5,61.3,22.8,96.6,28.3c116,18.3,238.2,27,341.9-40.9C603.4,614.4,626.7,583.7,652.4,551.9z"/>
<path class="st0" d="M225.7,197.7c-8.9,26.5-3.2,35.8,15.2,54.5c-12.8,0.1-30.4-12.8-33.3-25.1c-18-76.6,80-114.9,106-38
	C288,165.5,239,158.4,225.7,197.7L225.7,197.7z"/>
<path class="st0" d="M415.8,155.1c-13.8-2.6-85.2-3.4-91.3,5.5c5.4,47.5,1.3,99.3-52.5,114.7c-47.6,13.6-85.2-3.8-92.8-54.6l-8-1.7
	C135,267.5,115,336.6,105.3,396.2C96,453.3,92.7,545.1,112,600c5.3,15.1,39.9,27.9,55.4,33.2c22.2,7.6,43.9,11.3,67.3,13.4
	c-8.9-9.9-22.3-13.6-33.2-22.1c-31.4-24.6-57.1-84.8-52-124.3c2.8-21.4,25.8-39.1,28.4-16.2c4,36.4-0.7,58.7,20.7,93
	c22.3,35.7,42.9,30.2,70.8,49.4c15.4,10.6,21.9,35.2,44.5,32.9l-6.2-32.8c3.4-11,38-6.5,44.4-0.4c3,2.9-0.4,26.8,15.6,30
	c0.6-70.1-89.8-57.8-123.6-89.8c-9.7-9.2-14.4-31.4-15.7-44.3c-1.5-15.6,1.1-33.1,0-48.9c44.7-3.4,25.6,48.3,35.4,75.1
	c16.5,3.1,33.4,7.1,49.3,12.4c15.1,5,27.2,12.4,41.9,16.6c-6-34.9-6.2-70.7-16.7-104.8c-6.9-22.2-19.7-43.4-28.1-65.1
	c-44.8,2.2-110.4-7.2-134.2-50.8c-5.3-9.7-14.5-37.2-1.6-42.7c17.7-1,18.7,22.3,31.7,34.8c58.3,56.2,137.1,14.1,189.8-25.6
	c21-15.8,44.2-35.2,57.3-58.1c-21.4,6.3-41.5,17.2-62.6,24.3c-22.7,7.7-127.4,41.5-143.3,31l-4.9-20.8
	c75.7-18.9,150.1-43.7,221.4-75.2C471.4,189.5,450.4,161.6,415.8,155.1L415.8,155.1z M202.9,417.8c-6.6,9.4-35.4,21.8-43.5,13.5
	c-4.9-5-7.3-27.5,1.2-30.4C179.4,397,191.6,403.6,202.9,417.8z"/>
<path class="st0" d="M551.1,419.4c-6.4,29.9-49.2,24.9-72.8,25.2c3.5,15.3-14.1,30.5-25.6,39.2c-9.2,6.9-65.8,36.9-72.5,30.3
	l-12.7-53.6c17.1,0.2,35-7.5,50.5-14.3c11.9-5.2,49.3-24.3,55.2-33.3c6.7-10.2,8.2-26.6,16.3-37.4c12.8-17.1,47.9-27.3,45.5,2.8
	c-22.2-1.5-42.4,30.7-15.1,39.1C531.9,420.9,540,416.7,551.1,419.4z"/>
<path class="st0" d="M690.4,569.2c1.1-16.4,1-69.6-9.3-81.4c-17-19.6-34.3,16.5-41.4,24.6c-25.6,29.5-55.2,64.6-87.7,86.2
	c-41.3,27.4-93,46.3-142,53.3l-2.9-2.1c-11.7-32.5-21.8-66.1-23.6-100.9c23-4.2,45.3-10.2,66.3-20.7c40.8-20.2,66.1-57.9,115.6-61.5
	c9-0.7,20.6,6.5,31.5,6.4c27.4-0.1,100.6-12.6,125.8-23.1c35.7-14.8,14.3-31.3,24.4-38.8l31.7-7.8c0.5,89.8-43.2,167.1-99.7,233.4
	C681.2,614.5,688.8,591.9,690.4,569.2L690.4,569.2z"/>
<path class="st0" d="M745.7,380.8c-10.9-1.6-10.8-45.4,0.5-49.3C786.8,317.6,790.7,377.7,745.7,380.8z"/>
<path class="st0" d="M704.9,416.4c-6.8,9.7-96.1,17.2-112.9,20.4c-13.5-6-22.7-100-27-118.4l124.7-24.5c2.5-0.2,4.8-1.3,7.1,0.6
	L704.9,416.4L704.9,416.4z"/>
<path class="st0" d="M693.5,156.1c-11.8-14.7-28.8-24.1-36.3-42.6c-9.8,7.9-16.7,19.5-16.9,32.4c8.4,12.9,21.9,16.3,30,30.2
	c14.6,24.8,3.7,43.2-9,66.1l-21.1-3c-3.5-19.3,11.4-41.9-3.5-58.1c-9.9-10.8-24.9-10.6-28.5-31.6c-4.9-29.2,15.8-30,18.6-54.8
	C413.2-36.3,146.9,46.9,55.8,280.6c-32,82-46.2,215.1,9.5,290.2c1.2,1.6,4.4,5.4,4.7,1.6l-6.4-67.8l-6.3,3.2l15.8-82l-25.3,3.1
	c-0.1-37.3,29.4-66.9,44.3-99.4l-12.6,1.6c-0.9-8.2,1-15.4,3.8-23c18.5-49.9,60.2-97.4,95.9-134.7c29-30.3,39.8-57.8,91.7-57.1
	c17.9,0.3,35.3,12.1,47.7,12.7c9,0.4,20.4-5.6,31.3-6.2c93.9-5,168.8,12,146.5,123.9c-9.7,48.8-76.4,99.1-116.5,126.8
	c-13,9-42.7,16-35.4,32.5c15,33.8,56.8,15,80.9,0.3c25.6-15.6,22.3-25.2,35.6-46.6c15.8-25.5,31.5-32.9,61.7-33.1l1.6-40l192.9-34.6
	l7.9,1.8l12.5,44.4l31.7-5C752.2,245.5,725.5,195.8,693.5,156.1L693.5,156.1z M573.1,243.8c-1-15.4,12-29.9,4.9-45.2
	c-3.3-7.2-23-16-29.6-24.1c-21.8-27.2-5.3-75.7,34.4-67.3c-37.8,47.6,34.4,69.5,34.4,102.5C617.1,228,594.5,263.5,573.1,243.8z"/>
<path d="M617.2,209.6c0,18.4-22.7,53.9-44.1,34.2c-1-15.4,12-29.9,4.9-45.2c-3.3-7.2-23-16-29.6-24.1c-21.8-27.2-5.3-75.7,34.4-67.3
	C545,154.7,617.2,176.6,617.2,209.6z"/>
<path d="M202.9,417.8c-6.6,9.4-35.4,21.8-43.5,13.5c-4.9-5-7.3-27.5,1.2-30.4C179.4,397,191.6,403.6,202.9,417.8z"/>
</svg>
