<?xml version="1.0" encoding="UTF-8"?>
<svg id="Layer_1" data-name="Layer 1" xmlns="http://www.w3.org/2000/svg" viewBox="0 0 1188.09 793.53">
  <defs>
    <style>
      .cls-1 {
        fill: #fff;
      }
    </style>
  </defs>
  <path d="M808.42,291.18c-21.06-76.18-63.08-149.64-123.17-197.93C627.64,46.96,544.37,12.65,470.01,3.35,85-44.79-166.25,437.4,130.06,704.95c76.49,69.07,179.9,96.57,281.36,86.6,102.26-10.06,201.39-55.07,277.46-123.93,84.75-76.72,145.65-192.46,132.61-309.03-2.5-22.32-6.88-44.98-13.08-67.4ZM745.68,380.77c-10.87-1.57-10.75-45.42.55-49.28,40.59-13.88,44.46,46.16-.55,49.28ZM73.1,425.72l-15.78,82.03,6.28-3.19,6.38,67.82c-.29,3.8-3.52.04-4.73-1.59-55.66-75.06-41.45-208.19-9.48-290.16C146.93,46.85,413.22-36.29,626.87,94.7c-2.78,24.79-23.52,25.66-18.59,54.81,3.53,20.92,18.55,20.81,28.46,31.56,14.89,16.14-.06,38.75,3.47,58.06l21.09,2.96c12.66-22.87,23.61-41.21,8.97-66.05-8.17-13.86-21.62-17.29-30.03-30.18.27-12.91,7.1-24.53,16.93-32.42,7.55,18.52,24.49,27.95,36.31,42.62,31.98,39.7,58.71,89.43,76.06,137.11l-31.74,4.96-12.51-44.42-7.93-1.82-192.9,34.64-1.62,40.01c-30.25.22-45.93,7.63-61.74,33.11-13.25,21.35-9.96,30.94-35.58,46.56-24.17,14.73-65.94,33.52-80.94-.3-7.32-16.5,22.38-23.51,35.39-32.48,40.11-27.65,106.8-77.94,116.52-126.79,22.28-111.93-52.62-128.89-146.49-123.91-10.94.58-22.26,6.61-31.31,6.21-12.44-.55-29.86-12.41-47.74-12.66-51.9-.73-62.78,26.81-91.74,57.08-35.69,37.31-77.39,84.82-95.92,134.7-2.82,7.58-4.72,14.8-3.81,22.99l12.62-1.59c-14.95,32.54-44.38,62.13-44.31,99.41l25.31-3.15ZM704.92,416.35c-6.79,9.67-96.1,17.17-112.86,20.36-13.52-6.04-22.71-99.97-26.98-118.39l124.7-24.45c2.49-.18,4.83-1.31,7.1.65l8.04,121.83ZM452.72,483.8c-9.2,6.92-65.79,36.89-72.53,30.25l-12.66-53.62c17.06.18,34.97-7.53,50.53-14.33,11.85-5.17,49.34-24.31,55.24-33.28,6.71-10.22,8.22-26.63,16.28-37.4,12.78-17.1,47.86-27.26,45.53,2.78-22.15-1.47-42.41,30.71-15.13,39.09,11.88,3.64,20-.62,31.13,2.13-6.37,29.9-49.2,24.86-72.79,25.21,3.47,15.3-14.13,30.53-25.6,39.17ZM240.9,252.16c-12.75.1-30.38-12.78-33.27-25.1-17.98-76.59,79.97-114.9,106.05-37.97-25.72-23.58-74.68-30.72-87.94,8.57-8.94,26.46-3.24,35.8,15.16,54.5ZM111.96,599.96c-19.23-54.84-15.96-146.62-6.68-203.73,9.7-59.64,29.75-128.7,65.88-177.27l7.98,1.71c7.68,50.83,45.29,68.23,92.84,54.61,53.81-15.4,57.89-67.16,52.54-114.68,6.16-8.84,77.5-8.06,91.32-5.46,34.55,6.5,55.52,34.31,47.77,68.97-71.28,31.58-145.71,56.33-221.41,75.24l4.91,20.79c15.87,10.54,120.55-23.32,143.25-30.99,21.12-7.13,41.19-18.01,62.63-24.31-13.04,22.88-36.25,42.23-57.25,58.06-52.66,39.71-131.46,81.79-189.77,25.62-12.99-12.51-13.99-35.81-31.7-34.77-12.9,5.53-3.71,33,1.57,42.71,23.75,43.61,89.43,52.99,134.2,50.83,8.44,21.65,21.25,42.84,28.1,65.05,10.52,34.12,10.74,69.86,16.72,104.77-14.73-4.19-26.83-11.58-41.9-16.58-15.96-5.3-32.78-9.29-49.31-12.36-9.82-26.87,9.32-78.51-35.41-75.14,1.07,15.85-1.49,33.28,0,48.9,1.22,12.89,5.97,35.14,15.67,44.32,33.8,31.97,124.14,19.63,123.58,89.76-16.03-3.2-12.54-27.06-15.59-29.97-6.36-6.08-40.93-10.58-44.37.37l6.16,32.75c-22.65,2.28-29.08-22.3-44.51-32.91-27.86-19.17-48.48-13.65-70.75-49.37-21.35-34.25-16.67-56.53-20.69-92.96-2.53-22.96-25.59-5.24-28.35,16.19-5.09,39.47,20.57,99.7,52.02,124.27,10.87,8.5,24.25,12.2,33.16,22.13-23.39-2.05-45.01-5.83-67.25-13.39-15.49-5.27-50.06-18.03-55.36-33.16ZM466.23,743.34c-94.38,20.17-216.3,17.16-296.01-43.7-7.09-5.42-47.13-42.4-40.1-49.93,33,12.49,61.33,22.76,96.58,28.34,116.01,18.33,238.21,26.98,341.92-40.88,34.8-22.77,58.13-53.43,83.77-85.27-2.21,102.09-92.35,171.38-186.16,191.44ZM679.31,637.06c1.87-22.52,9.53-45.21,11.06-67.85,1.1-16.39.99-69.6-9.25-81.38-17.02-19.61-34.32,16.54-41.36,24.64-25.64,29.5-55.18,64.62-87.66,86.15-41.31,27.38-93.05,46.3-142.05,53.33l-2.91-2.09c-11.72-32.52-21.78-66.07-23.57-100.91,23.02-4.19,45.31-10.24,66.32-20.65,40.84-20.22,66.06-57.86,115.63-61.47,8.99-.66,20.63,6.47,31.52,6.44,27.38-.08,100.58-12.63,125.84-23.09,35.7-14.78,14.32-31.28,24.42-38.75l31.73-7.79c.45,89.77-43.17,167.07-99.72,233.42Z"/>
  <path class="cls-1" d="M652.39,551.9c-2.21,102.09-92.35,171.38-186.16,191.44-94.38,20.17-216.3,17.16-296.01-43.7-7.09-5.42-47.13-42.4-40.1-49.93,33,12.49,61.33,22.76,96.58,28.34,116.01,18.33,238.21,26.98,341.92-40.88,34.8-22.77,58.13-53.43,83.77-85.27Z"/>
  <path class="cls-1" d="M225.74,197.66c-8.94,26.46-3.24,35.8,15.16,54.5-12.75.1-30.38-12.78-33.27-25.1-17.98-76.59,79.97-114.9,106.05-37.97-25.72-23.58-74.68-30.72-87.94,8.57Z"/>
  <path class="cls-1" d="M415.84,155.14c-13.82-2.6-85.16-3.38-91.32,5.46,5.35,47.52,1.27,99.28-52.54,114.68-47.55,13.62-85.16-3.78-92.84-54.61l-7.98-1.71c-36.13,48.57-56.18,117.63-65.88,177.27-9.28,57.11-12.55,148.89,6.68,203.73,5.3,15.13,39.87,27.89,55.36,33.16,22.24,7.56,43.86,11.34,67.25,13.39-8.91-9.93-22.29-13.63-33.16-22.13-31.45-24.57-57.11-84.8-52.02-124.27,2.76-21.43,25.82-39.15,28.35-16.19,4.02,36.43-.66,58.71,20.69,92.96,22.27,35.72,42.89,30.2,70.75,49.37,15.43,10.61,21.86,35.19,44.51,32.91l-6.16-32.75c3.44-10.95,38.01-6.45,44.37-.37,3.05,2.91-.44,26.77,15.59,29.97.56-70.13-89.78-57.79-123.58-89.76-9.7-9.18-14.45-31.43-15.67-44.32-1.49-15.62,1.07-33.05,0-48.9,44.73-3.37,25.59,48.27,35.41,75.14,16.53,3.07,33.35,7.06,49.31,12.36,15.07,5,27.17,12.39,41.9,16.58-5.98-34.91-6.2-70.65-16.72-104.77-6.85-22.21-19.66-43.4-28.1-65.05-44.77,2.16-110.45-7.22-134.2-50.83-5.28-9.71-14.47-37.18-1.57-42.71,17.71-1.04,18.71,22.26,31.7,34.77,58.31,56.17,137.11,14.09,189.77-25.62,21-15.83,44.21-35.18,57.25-58.06-21.44,6.3-41.51,17.18-62.63,24.31-22.7,7.67-127.38,41.53-143.25,30.99l-4.91-20.79c75.7-18.91,150.13-43.66,221.41-75.24,7.75-34.66-13.22-62.47-47.77-68.97ZM202.86,417.82c-6.56,9.36-35.42,21.83-43.49,13.45-4.85-5.04-7.33-27.49,1.24-30.35,18.79-3.89,30.97,2.66,42.25,16.9Z"/>
  <path class="cls-1" d="M551.11,419.42c-6.37,29.9-49.2,24.86-72.79,25.21,3.47,15.3-14.13,30.53-25.6,39.17-9.2,6.92-65.79,36.89-72.53,30.25l-12.66-53.62c17.06.18,34.97-7.53,50.53-14.33,11.85-5.17,49.34-24.31,55.24-33.28,6.71-10.22,8.22-26.63,16.28-37.4,12.78-17.1,47.86-27.26,45.53,2.78-22.15-1.47-42.41,30.71-15.13,39.09,11.88,3.64,20-.62,31.13,2.13Z"/>
  <path class="cls-1" d="M690.37,569.21c1.1-16.39.99-69.6-9.25-81.38-17.02-19.61-34.32,16.54-41.36,24.64-25.64,29.5-55.18,64.62-87.66,86.15-41.31,27.38-93.05,46.3-142.05,53.33l-2.91-2.09c-11.72-32.52-21.78-66.07-23.57-100.91,23.02-4.19,45.31-10.24,66.32-20.65,40.84-20.22,66.06-57.86,115.63-61.47,8.99-.66,20.63,6.47,31.52,6.44,27.38-.08,100.58-12.63,125.84-23.09,35.7-14.78,14.32-31.28,24.42-38.75l31.73-7.79c.45,89.77-43.17,167.07-99.72,233.42,1.87-22.52,9.53-45.21,11.06-67.85Z"/>
  <path class="cls-1" d="M745.68,380.77c-10.87-1.57-10.75-45.42.55-49.28,40.59-13.88,44.46,46.16-.55,49.28Z"/>
  <path class="cls-1" d="M704.92,416.35c-6.79,9.67-96.1,17.17-112.86,20.36-13.52-6.04-22.71-99.97-26.98-118.39l124.7-24.45c2.49-.18,4.83-1.31,7.1.65l8.04,121.83Z"/>
  <path class="cls-1" d="M693.48,156.06c-11.82-14.67-28.76-24.1-36.31-42.62-9.83,7.89-16.66,19.51-16.93,32.42,8.41,12.89,21.86,16.32,30.03,30.18,14.64,24.84,3.69,43.18-8.97,66.05l-21.09-2.96c-3.53-19.31,11.42-41.92-3.47-58.06-9.91-10.75-24.93-10.64-28.46-31.56-4.93-29.15,15.81-30.02,18.59-54.81C413.22-36.29,146.93,46.85,55.77,280.63c-31.97,81.97-46.18,215.1,9.48,290.16,1.21,1.63,4.44,5.39,4.73,1.59l-6.38-67.82-6.28,3.19,15.78-82.03-25.31,3.15c-.07-37.28,29.36-66.87,44.31-99.41l-12.62,1.59c-.91-8.19.99-15.41,3.81-22.99,18.53-49.88,60.23-97.39,95.92-134.7,28.96-30.27,39.84-57.81,91.74-57.08,17.88.25,35.3,12.11,47.74,12.66,9.05.4,20.37-5.63,31.31-6.21,93.87-4.98,168.77,11.98,146.49,123.91-9.72,48.85-76.41,99.14-116.52,126.79-13.01,8.97-42.71,15.98-35.39,32.48,15,33.82,56.77,15.03,80.94.3,25.62-15.62,22.33-25.21,35.58-46.56,15.81-25.48,31.49-32.89,61.74-33.11l1.62-40.01,192.9-34.64,7.93,1.82,12.51,44.42,31.74-4.96c-17.35-47.68-44.08-97.41-76.06-137.11ZM573.07,243.8c-1.05-15.38,11.96-29.92,4.91-45.21-3.31-7.18-23.01-15.97-29.56-24.15-21.78-27.22-5.25-75.66,34.36-67.34-37.76,47.62,34.41,69.53,34.39,102.5-.02,18.38-22.67,53.91-44.1,34.2Z"/>
  <path d="M617.16,209.6c-.02,18.38-22.67,53.91-44.1,34.2-1.05-15.38,11.96-29.92,4.91-45.21-3.31-7.18-23.01-15.97-29.56-24.15-21.78-27.22-5.25-75.66,34.36-67.34-37.76,47.62,34.41,69.53,34.39,102.5Z"/>
  <path d="M202.86,417.82c-6.56,9.36-35.42,21.83-43.49,13.45-4.85-5.04-7.33-27.49,1.24-30.35,18.79-3.89,30.97,2.66,42.25,16.9Z"/>
  <path d="M1164.05,351.88c-5.68-4.09-12.79-5.71-19.71-4.63l-21.94,3.43-12.51-44.42-7.93-1.82-172.57,30.99c-11.87,2.13-20.67,12.23-21.16,24.28l-.79,19.38s20.29,104.65,42.68,140.29c4.8,7.63,20.63,6.47,31.52,6.44,27.38-.08,100.58-12.63,125.84-23.09,35.7-14.78,14.32-31.28,24.42-38.75l21.47-5.27c7.09-1.74,13.27-6.08,17.25-12.2,12.78-19.6,34.96-64.71-6.57-94.63ZM976.66,489.26c-13.52-6.04-22.71-99.97-26.98-118.39l124.7-24.45c2.49-.18,4.83-1.31,7.1.65l8.04,121.83c-6.79,9.67-96.1,17.17-112.86,20.36ZM1130.29,433.32c-10.87-1.57-10.75-45.42.55-49.28,40.59-13.88,44.46,46.16-.55,49.28ZM1054.87,228.59c-8.17-13.86-21.62-17.29-30.03-30.18.15-6.9,2.17-13.43,5.51-19.22,6.77-11.7,1.15-27-11.7-31.2-2.44-.8-4.87-1.13-7.18-.74-2.78,24.79-23.52,25.66-18.59,54.81,3.53,20.92,18.55,20.81,28.46,31.56,14.89,16.14-.06,38.75,3.47,58.06l21.09,2.96c12.66-22.87,23.61-41.21,8.97-66.05Z"/>
  <path class="cls-1" d="M1130.29,433.32c-10.87-1.57-10.75-45.42.55-49.28,40.59-13.88,44.46,46.16-.55,49.28Z"/>
  <path class="cls-1" d="M1089.53,468.9c-6.79,9.67-96.1,17.17-112.86,20.36-13.52-6.04-22.71-99.97-26.98-118.39l124.7-24.45c2.49-.18,4.83-1.31,7.1.65l8.04,121.83Z"/>
  <path d="M1001.77,262.15c-.02,18.38-22.67,53.91-44.1,34.2-1.05-15.38,11.96-29.92,4.91-45.21-3.31-7.18-23.01-15.97-29.56-24.15-21.78-27.22-5.25-75.66,34.36-67.34-37.76,47.62,34.41,69.53,34.39,102.5Z"/>
</svg>