<?xml version="1.0" encoding="utf-8"?>
<!-- Generator: Adobe Illustrator 22.0.0, SVG Export Plug-In . SVG Version: 6.00 Build 0)  -->
<svg version="1.1" id="Layer_1" xmlns="http://www.w3.org/2000/svg" xmlns:xlink="http://www.w3.org/1999/xlink" x="0px" y="0px"
	 viewBox="0 0 1188.1 793.5" style="enable-background:new 0 0 1188.1 793.5;" xml:space="preserve">
<style type="text/css">
	.st0{display:none;fill:#FFFFFF;}
	.st1{clip-path:url(#SVGID_2_);}
	.st2{fill:#FFFFFF;}
	.st3{clip-path:url(#SVGID_4_);}
	.st4{stroke:#000000;stroke-width:0.25;stroke-miterlimit:10;}
</style>
<path class="st0" d="M678.5,429.1c10.8-1.6,10.7-45.4-0.5-49.3C637.4,365.9,633.6,426,678.5,429.1z"/>
<path class="st0" d="M719.2,464.7c6.8,9.7,95.9,17.2,112.6,20.4c13.5-6,22.7-100,26.9-118.4l-124.4-24.5c-2.5-0.2-4.8-1.3-7.1,0.6
	L719.2,464.7L719.2,464.7z"/>
<g>
	<defs>
		<path id="SVGID_1_" d="M225.9,553.8h-58c-4,0-7.3-3.3-7.3-7.3v-58c0-4,3.3-7.3,7.3-7.3h58c4,0,7.3,3.3,7.3,7.3v58
			C233.2,550.5,229.9,553.8,225.9,553.8z"/>
	</defs>
	<clipPath id="SVGID_2_">
		<use xlink:href="#SVGID_1_"  style="overflow:visible;"/>
	</clipPath>
	<g class="st1">
		<rect x="160.6" y="481.2" class="st2" width="72.5" height="72.5"/>
		<path d="M170.2,502.9c1.3-0.9,2.9-1.3,4.5-1.1l5,0.8l2.9-10.2l1.8-0.4l39.7,7.1c2.7,0.5,4.7,2.8,4.9,5.6l0.2,4.5
			c0,0-4.7,24.1-9.8,32.3c-1.1,1.8-4.7,1.5-7.3,1.5c-6.3,0-23.1-2.9-28.9-5.3c-8.2-3.4-3.3-7.2-5.6-8.9l-4.9-1.2
			c-1.6-0.4-3-1.4-4-2.8C165.7,520.2,160.6,509.8,170.2,502.9L170.2,502.9z M213.2,534.5c3.1-1.4,5.2-23,6.2-27.3l-28.7-5.6
			c-0.6,0-1.1-0.3-1.6,0.1l-1.8,28.1C188.9,532.1,209.4,533.8,213.2,534.5L213.2,534.5z M177.9,521.7c2.5-0.4,2.5-10.5-0.1-11.4
			C168.4,507.1,167.6,520.9,177.9,521.7z"/>
	</g>
</g>
<g>
	<defs>
		<path id="SVGID_3_" d="M844.3,596.7H701.1c-13.5,0-24.5-11-24.5-24.5V429c0-13.5,11-24.5,24.5-24.5h143.2
			c13.5,0,24.5,11,24.5,24.5v143.2C868.8,585.7,857.8,596.7,844.3,596.7z"/>
	</defs>
	<clipPath id="SVGID_4_">
		<use xlink:href="#SVGID_3_"  style="overflow:visible;"/>
	</clipPath>
	<g class="st3">
		<rect x="639.2" y="367.2" class="st2" width="266.8" height="266.8"/>
		<g>
			<path class="st4" d="M840.5,463.7c-3.3-2.4-7.5-3.3-11.5-2.7l-12.8,2l-7.3-25.9l-4.6-1.1l-100.6,18.1
				c-6.9,1.2-12.1,7.1-12.3,14.2l-0.5,11.3c0,0,11.8,61,24.9,81.8c2.8,4.5,12,3.8,18.4,3.8c16,0,58.7-7.4,73.4-13.5
				c20.8-8.6,8.4-18.2,14.2-22.6l12.5-3.1c4.1-1,7.7-3.5,10.1-7.1C851.8,507.4,864.7,481.1,840.5,463.7L840.5,463.7z M731.2,543.8
				c-7.9-3.5-13.2-58.3-15.7-69l72.7-14.3c1.5-0.1,2.8-0.8,4.1,0.4l4.7,71.1C793,537.6,741,541.9,731.2,543.8L731.2,543.8z
				 M820.8,511.2c-6.3-0.9-6.3-26.5,0.3-28.7C844.8,474.3,847,509.4,820.8,511.2z"/>
			<path class="st2" d="M820.8,511.2c-6.3-0.9-6.3-26.5,0.3-28.7C844.8,474.3,847,509.4,820.8,511.2z"/>
			<path class="st2" d="M797,531.9c-4,5.6-56,10-65.8,11.9c-7.9-3.5-13.2-58.3-15.7-69l72.7-14.3c1.5-0.1,2.8-0.8,4.1,0.4L797,531.9
				L797,531.9z"/>
		</g>
	</g>
</g>
</svg>
